<svg width="484" height="484" viewBox="0 0 483.72 483.72" xmlns="http://www.w3.org/2000/svg">
  <g transform="translate(39.36,33.36)">
    <g transform="translate(0.000000,417.000000) scale(0.100000,-0.100000)" fill="#000000">
<path d="M1790 4030 c-250 -26 -521 -118 -733 -248 -37 -23 -71 -42 -76 -42
-5 0 -51 60 -102 133 -105 150 -111 157 -154 157 -51 0 -69 -30 -109 -190 -19
-80 -72 -282 -116 -450 -86 -326 -88 -345 -38 -371 20 -11 476 -43 784 -55
166 -7 172 -6 193 15 40 40 29 67 -93 237 -114 159 -114 159 -68 188 325 203
784 251 1182 124 512 -164 897 -602 1016 -1158 29 -135 27 -440 -4 -580 -142
-633 -560 -1069 -1153 -1202 -140 -31 -455 -33 -589 -4 -670 145 -1162 709
-1209 1385 -13 181 -67 246 -207 246 -171 0 -226 -158 -169 -487 174 -1014
1092 -1707 2103 -1588 1102 130 1863 1215 1641 2340 -193 979 -1107 1654
-2099 1550z"/>
<path d="M1490 2625 c-56 -30 -55 -20 -55 -635 0 -702 -16 -650 205 -650 226
0 210 -48 210 649 0 599 0 599 -52 631 -41 25 -265 29 -308 5z"/>
<path d="M2188 2611 c-33 -29 -33 -29 -36 -615 -3 -713 -22 -651 203 -651 225
0 205 -61 205 641 0 624 1 617 -55 642 -16 7 -76 12 -155 12 -129 0 -130 0
-162 -29z"/>
</g>
  </g>
</svg>
