<svg width="483" height="483" viewBox="0 0 482.56 482.56" xmlns="http://www.w3.org/2000/svg">
  <g transform="translate(37.78,33.28)">
    <g transform="translate(0.000000,416.000000) scale(0.100000,-0.100000)" fill="#000000">
<path d="M1830 4029 c-267 -28 -535 -116 -755 -249 -46 -28 -85 -50 -88 -50
-3 0 -36 43 -73 95 -121 174 -140 195 -179 195 -53 0 -67 -23 -108 -175 -220
-827 -209 -780 -175 -819 23 -27 23 -27 483 -55 484 -29 504 -28 524 15 18 41
13 57 -36 125 -123 169 -170 235 -176 246 -8 12 42 44 162 103 311 153 710
179 1058 69 504 -159 899 -596 1013 -1119 176 -806 -332 -1640 -1108 -1815
-919 -209 -1769 431 -1851 1393 -10 119 -32 159 -111 200 -107 54 -255 -13
-276 -124 -22 -116 22 -429 87 -624 328 -987 1377 -1533 2369 -1233 1038 313
1613 1508 1235 2560 -298 828 -1125 1351 -1995 1262z"/>
<path d="M1829 2775 c-53 -29 -54 -35 -41 -572 12 -537 11 -532 68 -553 42
-16 240 -12 274 5 46 24 49 48 56 570 8 530 8 522 -46 550 -40 21 -273 21
-311 0z"/>
<path d="M1895 1473 c-167 -87 -170 -312 -6 -395 226 -115 438 180 254 354
-59 56 -181 77 -248 41z"/>
</g>
  </g>
</svg>
