<svg width="1024" height="1024" viewBox="0 0 1024 1024" xmlns="http://www.w3.org/2000/svg">
  <!-- Generado por build/appicon/generate.sh desde el glifo vectorizado. -->
  <defs>
    <linearGradient id="bg" x1="0" y1="0" x2="0" y2="1">
      <stop offset="0" stop-color="#2b2b2f"/>
      <stop offset="1" stop-color="#161618"/>
    </linearGradient>
  </defs>
  <rect x="0" y="0" width="1024" height="1024" rx="230" fill="url(#bg)"/>
  <g transform="translate(210.72,204.80) scale(1.48048)">
    <g transform="translate(0.000000,415.000000) scale(0.100000,-0.100000)" fill="#ffffff">
<path d="M1847 4020 c-273 -25 -543 -112 -780 -253 -43 -26 -80 -47 -82 -47
-2 0 -47 63 -101 140 -101 145 -129 169 -177 151 -38 -15 -41 -23 -161 -478
-125 -476 -126 -483 -96 -513 27 -27 25 -27 415 -50 193 -11 396 -23 452 -26
99 -7 102 -6 127 19 47 47 43 57 -107 262 -63 85 -93 133 -87 141 17 20 205
112 291 142 359 126 767 103 1115 -62 561 -267 911 -874 854 -1481 -92 -994
-1002 -1627 -1925 -1340 -575 179 -997 697 -1055 1297 -18 177 -17 176 -65
223 -98 98 -254 75 -316 -48 -47 -90 -5 -434 83 -686 499 -1434 2399 -1742
3302 -536 276 369 400 745 401 1215 0 246 -6 300 -52 485 -227 912 -1096 1529
-2036 1445z"/>
<path d="M2592 2704 c-18 -9 -216 -203 -439 -431 -223 -227 -409 -413 -412
-413 -3 0 -80 72 -170 160 -148 144 -170 162 -218 176 -172 50 -316 -124 -239
-287 9 -19 130 -148 269 -286 390 -388 303 -411 959 251 524 528 548 556 548
641 0 145 -171 253 -298 189z"/>
</g>
  </g>
</svg>
